<svg width="20" height="20" viewBox="0 0 20 20" fill="none" xmlns="http://www.w3.org/2000/svg">
<g id="u:medkit">
<path id="Vector" d="M8.33332 14.1667H9.16666V15C9.16666 15.221 9.25445 15.433 9.41073 15.5893C9.56702 15.7456 9.77898 15.8334 9.99999 15.8334C10.221 15.8334 10.433 15.7456 10.5892 15.5893C10.7455 15.433 10.8333 15.221 10.8333 15V14.1667H11.6667C11.8877 14.1667 12.0996 14.0789 12.2559 13.9226C12.4122 13.7663 12.5 13.5544 12.5 13.3334C12.5 13.1123 12.4122 12.9004 12.2559 12.7441C12.0996 12.5878 11.8877 12.5 11.6667 12.5H10.8333V11.6667C10.8333 11.4457 10.7455 11.2337 10.5892 11.0774C10.433 10.9212 10.221 10.8334 9.99999 10.8334C9.77898 10.8334 9.56702 10.9212 9.41073 11.0774C9.25445 11.2337 9.16666 11.4457 9.16666 11.6667V12.5H8.33332C8.11231 12.5 7.90035 12.5878 7.74407 12.7441C7.58779 12.9004 7.49999 13.1123 7.49999 13.3334C7.49999 13.5544 7.58779 13.7663 7.74407 13.9226C7.90035 14.0789 8.11231 14.1667 8.33332 14.1667ZM15.8333 5.00002H14.1667V4.16669C14.1667 3.50365 13.9033 2.86776 13.4344 2.39892C12.9656 1.93008 12.3297 1.66669 11.6667 1.66669H8.33332C7.67028 1.66669 7.0344 1.93008 6.56556 2.39892C6.09672 2.86776 5.83332 3.50365 5.83332 4.16669V5.00002H4.16666C3.50362 5.00002 2.86773 5.26341 2.39889 5.73225C1.93005 6.20109 1.66666 6.83698 1.66666 7.50002V15.8334C1.66666 16.4964 1.93005 17.1323 2.39889 17.6011C2.86773 18.07 3.50362 18.3334 4.16666 18.3334H15.8333C16.4964 18.3334 17.1322 18.07 17.6011 17.6011C18.0699 17.1323 18.3333 16.4964 18.3333 15.8334V7.50002C18.3333 6.83698 18.0699 6.20109 17.6011 5.73225C17.1322 5.26341 16.4964 5.00002 15.8333 5.00002ZM7.49999 4.16669C7.49999 3.94567 7.58779 3.73371 7.74407 3.57743C7.90035 3.42115 8.11231 3.33335 8.33332 3.33335H11.6667C11.8877 3.33335 12.0996 3.42115 12.2559 3.57743C12.4122 3.73371 12.5 3.94567 12.5 4.16669V5.00002H7.49999V4.16669ZM16.6667 15.8334C16.6667 16.0544 16.5789 16.2663 16.4226 16.4226C16.2663 16.5789 16.0543 16.6667 15.8333 16.6667H4.16666C3.94564 16.6667 3.73368 16.5789 3.5774 16.4226C3.42112 16.2663 3.33332 16.0544 3.33332 15.8334V10H16.6667V15.8334ZM16.6667 8.33335H3.33332V7.50002C3.33332 7.27901 3.42112 7.06705 3.5774 6.91077C3.73368 6.75448 3.94564 6.66669 4.16666 6.66669H15.8333C16.0543 6.66669 16.2663 6.75448 16.4226 6.91077C16.5789 7.06705 16.6667 7.27901 16.6667 7.50002V8.33335Z" fill="white"/>
</g>
</svg>
